# xmcd
# Copyright (c) 1998 CDDB Inc.
#
# Track frame offsets:
#	150
#	10200
#	26250
#	41175
#	58800
#	78375
#	95700
#	116850
#	143475
#	172050
#	199275
#	214350
#
# Disc length: 3150 seconds
#
# Revision: 0
# Processed by: cddbd v1.5.2PL0 Copyright (c) Steve Scherf et al.
# Submitted via: audiograbber 1.83.01
#
DISCID=b00c4c0c
DTITLE=Jeremie Ray Faga - Free!
DYEAR=1900
DGENRE=
TTITLE0=Lord Have Mercy on a Country Boy
TTITLE1=Butterflies
TTITLE2=A Little Crazy
TTITLE3=I Need You Jesus
TTITLE4=Shooting Star
TTITLE5=Seminole Wind
TTITLE6=Another Shot of Jesus
TTITLE7=Too Many Lonely Nights
TTITLE8=Turn it Around
TTITLE9=You Had Grace on Me
TTITLE10=She Ain't Coming Back
TTITLE11=Free
EXTD=
EXTT0=
EXTT1=
EXTT2=
EXTT3=
EXTT4=
EXTT5=
EXTT6=
EXTT7=
EXTT8=
EXTT9=
EXTT10=
EXTT11=
PLAYORDER=
